<?xml version="1.0" standalone="no"?>
<!DOCTYPE svg PUBLIC "-//W3C//DTD SVG 20010904//EN"
 "http://www.w3.org/TR/2001/REC-SVG-20010904/DTD/svg10.dtd">
<svg version="1.0" xmlns="http://www.w3.org/2000/svg"
 width="194.000000pt" height="146.000000pt" viewBox="0 0 194.000000 146.000000"
 preserveAspectRatio="xMidYMid meet">
<metadata>
Created by potrace 1.10, written by Peter Selinger 2001-2011
</metadata>
<g transform="translate(0.000000,146.000000) scale(0.100000,-0.100000)"
fill="#f8a911" stroke="none">
<path d="M147 1348 c-68 -143 -109 -239 -108 -248 1 -2 102 -4 226 -5 l224 0
3 -460 3 -460 150 1 150 0 3 460 2 459 235 -1 c129 -1 235 2 235 6 0 11 -111
252 -123 268 -7 9 -119 12 -497 12 l-488 0 -15 -32z m923 3 c60 -1 66 -3 77
-28 7 -15 13 -31 13 -36 0 -4 13 -34 29 -67 54 -108 72 -97 -171 -97 -262 -1
-249 7 -248 -152 0 -58 0 -214 0 -345 0 -131 2 -242 4 -245 2 -3 1 -25 -3 -48
-5 -23 -4 -46 0 -50 5 -5 6 -25 2 -46 l-6 -37 -56 -1 c-145 -1 -183 -1 -187 4
-2 2 -4 203 -4 445 0 429 -1 442 -20 460 -19 17 -35 18 -220 14 -154 -3 -200
-1 -200 9 0 6 14 42 32 78 17 36 37 82 44 101 11 32 16 35 61 40 39 4 546 4
853 1z"/>
<path d="M210 1308 c-18 -10 -35 -36 -48 -70 -18 -48 -19 -55 -4 -70 13 -15
32 -18 116 -17 56 1 140 1 188 0 l87 -1 1 -420 c0 -230 3 -433 7 -450 7 -37
10 -39 86 -44 104 -7 97 -41 100 474 l2 444 191 -2 c172 -2 194 0 214 16 22
18 22 19 6 50 -9 18 -13 32 -9 32 5 0 0 5 -9 11 -10 5 -18 15 -18 20 0 6 -7
17 -15 26 -13 13 -76 15 -442 16 -383 2 -429 0 -453 -15z m906 -63 c13 -31 24
-58 24 -60 0 -3 -95 -6 -210 -7 l-210 -3 -1 -457 -1 -458 -69 0 -69 0 -2 458
-3 457 -207 3 -206 2 25 60 26 60 439 0 439 0 25 -55z"/>
<path d="M1570 1121 c0 -3 0 -120 0 -258 1 -240 -4 -279 -27 -239 -4 8 -84 95
-177 195 l-168 182 -147 -3 -146 -3 0 -410 0 -410 150 1 150 2 5 175 5 175
189 -204 189 -204 138 0 139 0 -2 503 -3 502 -147 1 c-82 1 -148 -2 -148 -5z
m270 -43 c4 -609 4 -922 0 -928 -3 -5 -57 -9 -120 -9 l-115 0 -55 58 c-30 32
-79 85 -108 117 -30 33 -78 85 -109 116 -34 35 -52 62 -47 69 4 7 3 9 -3 6 -5
-4 -25 5 -44 18 -31 23 -34 24 -44 8 -5 -10 -11 -74 -12 -143 0 -69 -1 -140
-2 -157 l-1 -33 -125 0 -125 0 -1 53 c-1 28 0 93 1 142 0 50 2 200 3 335 l2
245 129 0 128 0 57 -61 c31 -33 92 -100 136 -149 98 -107 166 -175 177 -175
23 0 29 54 29 275 l0 235 124 0 c123 0 125 0 125 -22z"/>
<path d="M1639 1047 c-13 -19 -16 -65 -17 -296 -1 -150 -4 -276 -6 -279 -3 -3
-29 21 -58 53 -29 32 -71 77 -93 100 -36 38 -169 182 -242 261 -49 54 -70 62
-156 56 -114 -6 -108 14 -105 -365 2 -241 6 -319 16 -329 8 -8 37 -12 79 -12
53 1 69 5 80 20 13 17 16 116 14 398 0 26 7 21 92 -70 206 -222 263 -282 319
-341 32 -35 66 -63 76 -64 131 -5 172 6 173 44 0 12 0 199 0 415 1 458 6 432
-95 432 -51 -1 -63 -4 -77 -23z m151 -427 l0 -420 -82 0 c-82 0 -83 0 -113 35
-75 88 -461 504 -468 504 -4 1 -7 -107 -5 -239 l3 -240 -67 0 -68 0 0 328 0
327 86 1 86 0 193 -205 c105 -113 212 -229 236 -258 24 -28 47 -52 52 -52 4
-1 7 143 7 319 l0 320 70 0 70 0 0 -420z"/>
</g>
</svg>
